<?xml version="1.0" encoding="utf-8"?>
<!-- Generator: Adobe Illustrator 19.2.1, SVG Export Plug-In . SVG Version: 6.00 Build 0)  -->
<svg version="1.1" id="layer" xmlns="http://www.w3.org/2000/svg" xmlns:xlink="http://www.w3.org/1999/xlink" x="0px" y="0px"
	 viewBox="0 0 652 652" style="enable-background:new 0 0 652 652;" xml:space="preserve">
<style type="text/css">
	.st0{fill:#5A17EE;}
	.st1{fill:#FFFFFF;}
</style>
<path class="st0" d="M542.7,416.8L445.6,366H45.7V208.4h551.5V366h-54.5V416.8z M21.5,184.1v206.1h418.2L567,456.9v-66.7h54.5V184.1
	H21.5z M70,232.6h103v54.5l-33.2,12.9l34,41.7h-31.3L116,309.3l-21.8,8.5v23.9H70V232.6z M221.5,341.7h-24.2V232.6h109.1v109.1
	h-24.2v-36.4h-60.6V341.7z M330.6,299.3v-66.7h109.1v24.2h-84.8V275h84.8v66.7H330.6v-24.2h84.8v-18.2H330.6z M463.9,293.2v-60.6
	H573v109.1h-24.2v-36.4h-60.6v36.4h-24.2V293.2z M94.2,291.7l54.5-21.2v-13.7H94.2V291.7z M221.5,256.9v24.2h60.6v-24.2H221.5z"/>
<rect x="488.2" y="256.9" class="st1" width="60.6" height="24.2"/>
</svg>
